<svg width="60" height="59" viewBox="0 0 60 59" fill="none" xmlns="http://www.w3.org/2000/svg">
<path d="M11.4361 52.2869C16.571 56.2179 22.6787 58.2954 29.0982 58.2952C30.3917 58.2952 31.7025 58.2083 32.9933 58.0367C40.7117 57.0116 47.5693 53.0422 52.3022 46.8594C55.1818 43.0979 57.1178 38.6551 57.9008 34.0114C58.037 33.2043 57.4929 32.4395 56.6858 32.3033L52.7883 31.646C52.4002 31.5807 52.0029 31.6719 51.6826 31.8997C51.3622 32.1276 51.1456 32.4732 51.0802 32.861C50.4836 36.3978 49.0071 39.7844 46.8098 42.6546C43.1999 47.3702 37.9698 50.3979 32.0822 51.1797C31.0952 51.311 30.0938 51.3774 29.1063 51.3774C24.2135 51.3774 19.5574 49.7926 15.6403 46.7941C10.9249 43.1842 7.89717 37.9541 7.11534 32.0669C6.33332 26.1801 7.89085 20.3409 11.5006 15.6253C15.738 10.0902 22.1827 6.91588 29.1824 6.91588C34.1006 6.91588 38.7643 8.49613 42.6696 11.4855C43.9641 12.4764 45.1262 13.5833 46.1531 14.7966L38.8538 13.508C38.4672 13.4395 38.0686 13.528 37.7463 13.7533C37.4239 13.9788 37.205 14.3229 37.1366 14.71L36.4494 18.6024C36.3071 19.4085 36.8453 20.1773 37.6512 20.3196L55.1672 23.4119C55.253 23.4271 55.3389 23.4344 55.4249 23.4344C55.7269 23.4344 56.0239 23.3421 56.2749 23.1666C56.5971 22.9411 56.8162 22.5971 56.8844 22.2099L59.9765 4.69392C60.119 3.88779 59.5809 3.119 58.7747 2.97651L54.8824 2.28935C54.0751 2.14646 53.3073 2.6852 53.1652 3.49134L51.8638 10.863C50.4039 9.05226 48.7274 7.41173 46.874 5.99294C41.7526 2.07235 35.6368 0 29.1871 0C20.0125 0 11.5642 4.16269 6.00822 11.4205C1.27556 17.6035 -0.766354 25.2593 0.258755 32.9778C1.28406 40.6968 5.25367 47.554 11.4361 52.2869Z" fill="white"/>
</svg>
